<?xml version="1.0" encoding="UTF-8" standalone="no"?>
<svg
   xmlns:dc="http://purl.org/dc/elements/1.1/"
   xmlns:cc="http://creativecommons.org/ns#"
   xmlns:rdf="http://www.w3.org/1999/02/22-rdf-syntax-ns#"
   xmlns:svg="http://www.w3.org/2000/svg"
   xmlns="http://www.w3.org/2000/svg"
   xmlns:sodipodi="http://sodipodi.sourceforge.net/DTD/sodipodi-0.dtd"
   xmlns:inkscape="http://www.inkscape.org/namespaces/inkscape"
   fill-opacity="1"
   color-rendering="auto"
   color-interpolation="auto"
   stroke="black"
   text-rendering="auto"
   stroke-linecap="square"
   width="200"
   stroke-miterlimit="10"
   stroke-opacity="1"
   shape-rendering="auto"
   fill="black"
   stroke-dasharray="none"
   font-weight="normal"
   stroke-width="1"
   height="290"
   font-family="'Dialog'"
   font-style="normal"
   stroke-linejoin="miter"
   font-size="12"
   stroke-dashoffset="0"
   image-rendering="auto"
   id="svg3109"
   version="1.1"
   inkscape:version="0.48.3.1 r9886"
   sodipodi:docname="zig_zig_1.svg">
  <metadata
     id="metadata3193">
    <rdf:RDF>
      <cc:Work
         rdf:about="">
        <dc:format>image/svg+xml</dc:format>
        <dc:type
           rdf:resource="http://purl.org/dc/dcmitype/StillImage" />
      </cc:Work>
    </rdf:RDF>
  </metadata>
  <sodipodi:namedview
     pagecolor="#ffffff"
     bordercolor="#666666"
     borderopacity="1"
     objecttolerance="10"
     gridtolerance="10"
     guidetolerance="10"
     inkscape:pageopacity="0"
     inkscape:pageshadow="2"
     inkscape:window-width="1600"
     inkscape:window-height="1151"
     id="namedview3191"
     showgrid="false"
     inkscape:zoom="1.6724138"
     inkscape:cx="-69.703323"
     inkscape:cy="175.46365"
     inkscape:window-x="0"
     inkscape:window-y="0"
     inkscape:window-maximized="1"
     inkscape:current-layer="svg3109" />
  <!--Generated by ySVG 2.5-->
  <defs
     id="genericDefs">
    <defs
       id="defs1">
      <clipPath
         id="clipPath1"
         clipPathUnits="userSpaceOnUse">
        <path
           id="path3116"
           d="M 0,0 200,0 200,290 0,290 0,0 z"
           inkscape:connector-curvature="0" />
      </clipPath>
      <clipPath
         id="clipPath2"
         clipPathUnits="userSpaceOnUse">
        <path
           id="path3119"
           d="m -15,-15 200,0 0,290 -200,0 0,-290 z"
           inkscape:connector-curvature="0" />
      </clipPath>
    </defs>
  </defs>
  <rect
     style="fill:#ffffff;stroke:none"
     x="-15"
     width="200"
     height="290"
     y="-15"
     clip-path="url(#clipPath2)"
     id="rect3123"
     transform="translate(15,15)" />
  <text
     style="font-weight:bold;stroke:none;font-family:Myriad Pro"
     x="117.1875"
     xml:space="preserve"
     y="18.490101"
     clip-path="url(#clipPath2)"
     id="text3127"
     transform="translate(15,15)">z</text>
  <circle
     style="font-weight:bold;fill:none;stroke-width:2;stroke-linecap:butt;stroke-miterlimit:1.45000005;font-family:Myriad Pro"
     sodipodi:ry="15"
     sodipodi:rx="15"
     sodipodi:cy="15"
     sodipodi:cx="120"
     r="15"
     clip-path="url(#clipPath2)"
     cx="120"
     cy="15"
     id="circle3129"
     d="m 135,15 c 0,8.284271 -6.71573,15 -15,15 -8.28427,0 -15,-6.715729 -15,-15 0,-8.2842712 6.71573,-15 15,-15 8.28427,0 15,6.7157288 15,15 z"
     transform="translate(15,15)" />
  <text
     style="font-weight:bold;stroke:none;font-family:Myriad Pro"
     x="81.863701"
     xml:space="preserve"
     y="88.490097"
     clip-path="url(#clipPath2)"
     id="text3131"
     transform="translate(15,15)">y</text>
  <circle
     style="font-weight:bold;fill:none;stroke-width:2;stroke-linecap:butt;stroke-miterlimit:1.45000005;font-family:Myriad Pro"
     sodipodi:ry="15"
     sodipodi:rx="15"
     sodipodi:cy="85"
     sodipodi:cx="85"
     r="15"
     clip-path="url(#clipPath2)"
     cx="85"
     cy="85"
     id="circle3133"
     d="m 100,85 c 0,8.284271 -6.715729,15 -15,15 -8.284271,0 -15,-6.715729 -15,-15 0,-8.284271 6.715729,-15 15,-15 8.284271,0 15,6.715729 15,15 z"
     transform="translate(15,15)" />
  <text
     style="font-weight:bold;stroke:none;font-family:Myriad Pro"
     x="46.887699"
     xml:space="preserve"
     y="158.4901"
     clip-path="url(#clipPath2)"
     id="text3135"
     transform="translate(15,15)">x</text>
  <circle
     style="font-weight:bold;fill:none;stroke-width:2;stroke-linecap:butt;stroke-miterlimit:1.45000005;font-family:Myriad Pro"
     sodipodi:ry="15"
     sodipodi:rx="15"
     sodipodi:cy="155"
     sodipodi:cx="50"
     r="15"
     clip-path="url(#clipPath2)"
     cx="50"
     cy="155"
     id="circle3137"
     d="m 65,155 c 0,8.28427 -6.715729,15 -15,15 -8.284271,0 -15,-6.71573 -15,-15 0,-8.28427 6.715729,-15 15,-15 8.284271,0 15,6.71573 15,15 z"
     transform="translate(15,15)" />
  <path
     style="fill:#a5f596;fill-rule:evenodd;stroke:none"
     inkscape:connector-curvature="0"
     d="m 155,70 15,30 -30,0 z"
     clip-path="url(#clipPath2)"
     id="path3141"
     transform="translate(15,15)" />
  <text
     style="font-weight:bold;stroke:none;font-family:Myriad Pro"
     x="150.82629"
     xml:space="preserve"
     y="115.067"
     clip-path="url(#clipPath2)"
     id="text3145"
     transform="translate(15,15)">D</text>
  <path
     style="font-weight:bold;fill:none;stroke-width:2;stroke-linecap:butt;stroke-miterlimit:1.45000005;font-family:Myriad Pro"
     inkscape:connector-curvature="0"
     d="m 155,70 15,30 -30,0 z"
     clip-path="url(#clipPath2)"
     id="path3147"
     transform="translate(15,15)" />
  <path
     style="fill:#a5f596;fill-rule:evenodd;stroke:none"
     inkscape:connector-curvature="0"
     d="m 120,140 15,30 -30,0 z"
     clip-path="url(#clipPath2)"
     id="path3151"
     transform="translate(15,15)" />
  <text
     style="font-weight:bold;stroke:none;font-family:Myriad Pro;-inkscape-font-specification:Myriad Pro Bold;font-style:normal;font-stretch:normal;font-variant:normal;font-size:12px;text-anchor:start;text-align:start;writing-mode:lr;line-height:125%"
     x="116.0684"
     xml:space="preserve"
     y="186.8867"
     clip-path="url(#clipPath2)"
     id="text3155"
     transform="translate(15,15)"
     sodipodi:linespacing="125%">C</text>
  <path
     style="font-weight:bold;fill:none;stroke-width:2;stroke-linecap:butt;stroke-miterlimit:1.45000005;font-family:Andale Mono"
     inkscape:connector-curvature="0"
     d="m 120,140 15,30 -30,0 z"
     clip-path="url(#clipPath2)"
     id="path3157"
     transform="translate(15,15)" />
  <path
     style="fill:#a5f596;fill-rule:evenodd;stroke:none"
     inkscape:connector-curvature="0"
     d="m 15,210 15,30 -30,0 z"
     clip-path="url(#clipPath2)"
     id="path3161"
     transform="translate(15,15)" />
  <text
     style="font-weight:bold;stroke:none;font-family:Myriad Pro"
     x="11.0662"
     xml:space="preserve"
     y="255.067"
     clip-path="url(#clipPath2)"
     id="text3165"
     transform="translate(15,15)">A</text>
  <path
     style="font-weight:bold;fill:none;stroke-width:2;stroke-linecap:butt;stroke-miterlimit:1.45000005;font-family:Myriad Pro"
     inkscape:connector-curvature="0"
     d="m 15,210 15,30 -30,0 z"
     clip-path="url(#clipPath2)"
     id="path3167"
     transform="translate(15,15)" />
  <path
     style="fill:#a5f596;fill-rule:evenodd;stroke:none"
     inkscape:connector-curvature="0"
     d="m 85,210 15,30 -30,0 z"
     clip-path="url(#clipPath2)"
     id="path3171"
     transform="translate(15,15)" />
  <text
     style="font-weight:bold;stroke:none;font-family:Myriad Pro"
     x="81.377998"
     xml:space="preserve"
     y="255.067"
     clip-path="url(#clipPath2)"
     id="text3175"
     transform="translate(15,15)">B</text>
  <path
     style="font-weight:bold;fill:none;stroke-width:2;stroke-linecap:butt;stroke-miterlimit:1.45000005;font-family:Myriad Pro"
     inkscape:connector-curvature="0"
     d="m 85,210 15,30 -30,0 z"
     clip-path="url(#clipPath2)"
     id="path3177"
     transform="translate(15,15)" />
  <path
     style="font-weight:bold;fill:none;stroke-width:2;stroke-linecap:butt;stroke-miterlimit:1.45000005;font-family:Myriad Pro"
     inkscape:connector-curvature="0"
     d="M 115.5062,29.325 85,70"
     clip-path="url(#clipPath2)"
     id="path3179"
     transform="translate(15,15)" />
  <path
     style="font-weight:bold;fill:none;stroke-width:2;stroke-linecap:butt;stroke-miterlimit:1.45000005;font-family:Myriad Pro"
     inkscape:connector-curvature="0"
     d="M 80.5062,99.325 50,140"
     clip-path="url(#clipPath2)"
     id="path3181"
     transform="translate(15,15)" />
  <path
     style="font-weight:bold;fill:none;stroke-width:2;stroke-linecap:butt;stroke-miterlimit:1.45000005;font-family:Myriad Pro"
     inkscape:connector-curvature="0"
     d="M 124.4938,29.325 155,70"
     clip-path="url(#clipPath2)"
     id="path3183"
     transform="translate(15,15)" />
  <path
     style="font-weight:bold;fill:none;stroke-width:2;stroke-linecap:butt;stroke-miterlimit:1.45000005;font-family:Myriad Pro"
     inkscape:connector-curvature="0"
     d="M 89.4938,99.325 120,140"
     clip-path="url(#clipPath2)"
     id="path3185"
     transform="translate(15,15)" />
  <path
     style="font-weight:bold;fill:none;stroke-width:2;stroke-linecap:butt;stroke-miterlimit:1.45000005;font-family:Myriad Pro"
     inkscape:connector-curvature="0"
     d="M 45.5062,169.325 15,210"
     clip-path="url(#clipPath2)"
     id="path3187"
     transform="translate(15,15)" />
  <path
     style="font-weight:bold;fill:none;stroke-width:2;stroke-linecap:butt;stroke-miterlimit:1.45000005;font-family:Myriad Pro"
     inkscape:connector-curvature="0"
     d="M 54.4938,169.325 85,210"
     clip-path="url(#clipPath2)"
     id="path3189"
     transform="translate(15,15)" />
</svg>
