<?xml version="1.0" encoding="UTF-8"?><svg xmlns="http://www.w3.org/2000/svg" xmlns:xlink="http://www.w3.org/1999/xlink" fill-opacity="1" color-rendering="auto" color-interpolation="auto" stroke="black" text-rendering="auto" stroke-linecap="square" width="200" stroke-miterlimit="10" stroke-opacity="1" shape-rendering="auto" fill="black" stroke-dasharray="none" font-weight="normal" stroke-width="1" height="290" font-family="'Dialog'" font-style="normal" stroke-linejoin="miter" font-size="12" stroke-dashoffset="0" image-rendering="auto">
  <!--Generated by ySVG 2.5-->
  <defs id="genericDefs"/>
  <g>
    <defs id="defs1">
      <clipPath clipPathUnits="userSpaceOnUse" id="clipPath1">
        <path d="M0 0 L200 0 L200 290 L0 290 L0 0 Z"/>
      </clipPath>
      <clipPath clipPathUnits="userSpaceOnUse" id="clipPath2">
        <path d="M-15 -15 L185 -15 L185 275 L-15 275 L-15 -15 Z"/>
      </clipPath>
    </defs>
    <g fill="white" text-rendering="geometricPrecision" shape-rendering="geometricPrecision" transform="translate(15,15)" stroke="white">
      <rect x="-15" width="200" height="290" y="-15" clip-path="url(#clipPath2)" stroke="none"/>
    </g>
    <g stroke-linecap="butt" transform="matrix(1,0,0,1,15,15)" text-rendering="geometricPrecision" font-family="'Myriad Pro'" shape-rendering="geometricPrecision" font-weight="bold" stroke-miterlimit="1.45">
      <text x="117.1875" xml:space="preserve" y="18.4901" clip-path="url(#clipPath2)" stroke="none">z</text>
      <circle fill="none" stroke-width="2" r="15" clip-path="url(#clipPath2)" cx="120" cy="15"/>
    </g>
    <g fill="yellow" text-rendering="geometricPrecision" shape-rendering="geometricPrecision" transform="matrix(1,0,0,1,15,15)" stroke="yellow">
      <circle r="15" clip-path="url(#clipPath2)" cx="85" cy="85" stroke="none"/>
    </g>
    <g stroke-linecap="butt" transform="matrix(1,0,0,1,15,15)" text-rendering="geometricPrecision" font-family="'Myriad Pro'" shape-rendering="geometricPrecision" font-weight="bold" stroke-miterlimit="1.45">
      <text x="81.8637" xml:space="preserve" y="88.4901" clip-path="url(#clipPath2)" stroke="none">y</text>
    </g>
    <g stroke-linecap="butt" transform="matrix(1,0,0,1,15,15)" fill="rgb(255,102,0)" text-rendering="geometricPrecision" shape-rendering="geometricPrecision" stroke="rgb(255,102,0)" stroke-width="2" stroke-miterlimit="1.45">
      <circle fill="none" r="15" clip-path="url(#clipPath2)" cx="85" cy="85"/>
    </g>
    <g stroke-linecap="butt" transform="matrix(1,0,0,1,15,15)" text-rendering="geometricPrecision" font-family="'Myriad Pro'" shape-rendering="geometricPrecision" font-weight="bold" stroke-miterlimit="1.45">
      <text x="46.8877" xml:space="preserve" y="158.4901" clip-path="url(#clipPath2)" stroke="none">x</text>
      <circle fill="none" stroke-width="2" r="15" clip-path="url(#clipPath2)" cx="50" cy="155"/>
    </g>
    <g fill="rgb(165,245,150)" text-rendering="geometricPrecision" shape-rendering="geometricPrecision" transform="matrix(1,0,0,1,15,15)" stroke="rgb(165,245,150)">
      <path d="M155 70 L170 100 L140 100 Z" clip-path="url(#clipPath2)" fill-rule="evenodd" stroke="none"/>
    </g>
    <g stroke-linecap="butt" transform="matrix(1,0,0,1,15,15)" text-rendering="geometricPrecision" font-family="'Myriad Pro'" shape-rendering="geometricPrecision" font-weight="bold" stroke-miterlimit="1.45">
      <text x="150.8263" xml:space="preserve" y="115.067" clip-path="url(#clipPath2)" stroke="none">D</text>
      <path fill="none" stroke-width="2" d="M155 70 L170 100 L140 100 Z" fill-rule="evenodd" clip-path="url(#clipPath2)"/>
    </g>
    <g fill="rgb(165,245,150)" text-rendering="geometricPrecision" shape-rendering="geometricPrecision" transform="matrix(1,0,0,1,15,15)" stroke="rgb(165,245,150)">
      <path d="M120 140 L135 170 L105 170 Z" clip-path="url(#clipPath2)" fill-rule="evenodd" stroke="none"/>
    </g>
    <g stroke-linecap="butt" transform="matrix(1,0,0,1,15,15)" text-rendering="geometricPrecision" font-family="'Andale Mono'" shape-rendering="geometricPrecision" font-weight="bold" stroke-miterlimit="1.45">
      <text x="116.0684" xml:space="preserve" y="186.8867" clip-path="url(#clipPath2)" stroke="none">C</text>
      <path fill="none" stroke-width="2" d="M120 140 L135 170 L105 170 Z" fill-rule="evenodd" clip-path="url(#clipPath2)"/>
    </g>
    <g fill="rgb(165,245,150)" text-rendering="geometricPrecision" shape-rendering="geometricPrecision" transform="matrix(1,0,0,1,15,15)" stroke="rgb(165,245,150)">
      <path d="M15 210 L30 240 L0 240 Z" clip-path="url(#clipPath2)" fill-rule="evenodd" stroke="none"/>
    </g>
    <g stroke-linecap="butt" transform="matrix(1,0,0,1,15,15)" text-rendering="geometricPrecision" font-family="'Myriad Pro'" shape-rendering="geometricPrecision" font-weight="bold" stroke-miterlimit="1.45">
      <text x="11.0662" xml:space="preserve" y="255.067" clip-path="url(#clipPath2)" stroke="none">A</text>
      <path fill="none" stroke-width="2" d="M15 210 L30 240 L0 240 Z" fill-rule="evenodd" clip-path="url(#clipPath2)"/>
    </g>
    <g fill="rgb(165,245,150)" text-rendering="geometricPrecision" shape-rendering="geometricPrecision" transform="matrix(1,0,0,1,15,15)" stroke="rgb(165,245,150)">
      <path d="M85 210 L100 240 L70 240 Z" clip-path="url(#clipPath2)" fill-rule="evenodd" stroke="none"/>
    </g>
    <g stroke-linecap="butt" transform="matrix(1,0,0,1,15,15)" text-rendering="geometricPrecision" font-family="'Myriad Pro'" shape-rendering="geometricPrecision" font-weight="bold" stroke-miterlimit="1.45">
      <text x="81.378" xml:space="preserve" y="255.067" clip-path="url(#clipPath2)" stroke="none">B</text>
      <path fill="none" stroke-width="2" d="M85 210 L100 240 L70 240 Z" fill-rule="evenodd" clip-path="url(#clipPath2)"/>
    </g>
    <g stroke-linecap="butt" transform="matrix(1,0,0,1,15,15)" fill="rgb(255,102,0)" text-rendering="geometricPrecision" shape-rendering="geometricPrecision" stroke="rgb(255,102,0)" stroke-width="2" stroke-miterlimit="1.45">
      <path fill="none" d="M115.5062 29.325 L85 70" clip-path="url(#clipPath2)"/>
      <path fill="none" d="M80.5062 99.325 L50 140" clip-path="url(#clipPath2)" stroke="black"/>
      <path fill="none" d="M124.4938 29.325 L155 70" clip-path="url(#clipPath2)" stroke="black"/>
      <path fill="none" d="M89.4938 99.325 L120 140" clip-path="url(#clipPath2)" stroke="black"/>
      <path fill="none" d="M45.5062 169.325 L15 210" clip-path="url(#clipPath2)" stroke="black"/>
      <path fill="none" d="M54.4938 169.325 L85 210" clip-path="url(#clipPath2)" stroke="black"/>
    </g>
  </g>
</svg>
